<svg width="400" height="160" viewBox="0 0 400 160" xmlns="http://www.w3.org/2000/svg">
  <!-- 상단 곡선 -->
  <path d="M 60 50 Q 100 25 140 50 Q 160 60 180 50" stroke="#2c3e50" stroke-width="6" fill="none" stroke-linecap="round"/>
  
  <!-- 하단 곡선 -->
  <path d="M 220 110 Q 260 135 300 110 Q 320 100 340 110" stroke="#2c3e50" stroke-width="6" fill="none" stroke-linecap="round"/>
  
  <!-- Ryuin 텍스트 -->
  <g fill="#2c3e50" font-family="system-ui, -apple-system, sans-serif">
    <!-- R -->
    <path d="M 140 65 L 140 115 M 140 65 L 155 65 Q 165 65 165 75 Q 165 85 155 85 L 140 85 M 155 85 L 165 115" stroke="#2c3e50" stroke-width="3.5" fill="none" stroke-linecap="round" stroke-linejoin="round"/>
    
    <!-- y -->
    <path d="M 175 85 Q 175 75 185 75 Q 195 75 195 85 L 195 105 Q 195 125 175 125" stroke="#2c3e50" stroke-width="3.5" fill="none" stroke-linecap="round" stroke-linejoin="round"/>
    
    <!-- u -->
    <path d="M 205 85 L 205 105 Q 205 115 215 115 Q 225 115 225 105 L 225 85" stroke="#2c3e50" stroke-width="3.5" fill="none" stroke-linecap="round" stroke-linejoin="round"/>
    
    <!-- u -->
    <path d="M 235 85 L 235 105 Q 235 115 245 115 Q 255 115 255 105 L 255 85" stroke="#2c3e50" stroke-width="3.5" fill="none" stroke-linecap="round" stroke-linejoin="round"/>
    
    <!-- i -->
    <circle cx="265" cy="75" r="2" fill="#2c3e50"/>
    <path d="M 265 85 L 265 115" stroke="#2c3e50" stroke-width="3.5" fill="none" stroke-linecap="round"/>
    
    <!-- n -->
    <path d="M 275 85 L 275 115 M 275 85 Q 285 75 295 85 L 295 115" stroke="#2c3e50" stroke-width="3.5" fill="none" stroke-linecap="round" stroke-linejoin="round"/>
  </g>
</svg> 